<svg width="302" height="80" viewBox="0 0 302 80" fill="none" xmlns="http://www.w3.org/2000/svg">
<path fill-rule="evenodd" clip-rule="evenodd" d="M11.5142 1H290.486C293.826 1 296.523 2.92567 298.26 5.39514C300.008 7.881 301 11.1648 301 14.661V65.339C301 68.8352 300.008 72.119 298.26 74.6049C296.523 77.0743 293.826 79 290.486 79H11.5142C8.1737 79 5.47741 77.0743 3.74041 74.6049C1.99188 72.119 1 68.8352 1 65.339V14.661C1 11.1648 1.99188 7.881 3.7404 5.39514C5.47741 2.92567 8.17369 1 11.5142 1ZM11.5142 3.64407C7.23442 3.64407 3.76498 8.57652 3.76498 14.661V65.339C3.76498 71.4235 7.23442 76.3559 11.5142 76.3559H290.486C294.766 76.3559 298.235 71.4235 298.235 65.339V14.661C298.235 8.57652 294.766 3.64407 290.486 3.64407H11.5142Z" fill="#6F9DE2"/>
<path fill-rule="evenodd" clip-rule="evenodd" d="M10.5843 0H291.416C294.778 0 297.493 1.97505 299.241 4.50784C301.001 7.05743 302 10.4254 302 14.0113V65.9887C302 69.5746 301.001 72.9426 299.241 75.4922C297.493 78.025 294.778 80 291.416 80H10.5843C7.22152 80 4.50726 78.025 2.75868 75.4922C0.998493 72.9426 0 69.5746 0 65.9887V14.0113C0 10.4254 0.998491 7.05744 2.75867 4.50784C4.50726 1.97505 7.22152 0 10.5843 0ZM10.5843 2.71186C6.27598 2.71186 2.78341 7.77079 2.78341 14.0113V65.9887C2.78341 72.2292 6.27599 77.2881 10.5843 77.2881H291.416C295.724 77.2881 299.217 72.2292 299.217 65.9887V14.0113C299.217 7.77079 295.724 2.71186 291.416 2.71186H10.5843Z" fill="#6F9DE2"/>
<mask id="path-3-outside-1_6153_1628" maskUnits="userSpaceOnUse" x="22" y="20" width="262" height="48" fill="black">
<rect fill="white" x="22" y="20" width="262" height="48"/>
<path d="M45.68 36.806V44.114H35.6V47.936H47.948V56H25.52V24.5H47.696L46.436 32.564H35.6V36.806H45.68ZM69.6092 56H56.0012L49.7012 30.8H59.7812L62.5532 47.18H63.0572L65.8292 30.8H75.9092L69.6092 56ZM88.2582 47.432V49.196C88.7622 49.252 89.2662 49.294 89.7702 49.322C90.2742 49.35 90.7782 49.364 91.2822 49.364C94.4182 49.364 97.5822 48.86 100.774 47.852L101.95 55.244C98.1702 56.252 94.4462 56.756 90.7782 56.756C86.0742 56.756 82.6722 55.664 80.5722 53.48C78.4722 51.268 77.4222 47.908 77.4222 43.4C77.4222 38.892 78.4722 35.546 80.5722 33.362C82.7002 31.15 86.1022 30.044 90.7782 30.044C93.1302 30.044 95.0902 30.198 96.6582 30.506C98.2262 30.786 99.4862 31.276 100.438 31.976C101.418 32.648 102.104 33.572 102.496 34.748C102.916 35.896 103.126 37.352 103.126 39.116C103.126 40.572 102.874 41.832 102.37 42.896C101.894 43.932 101.082 44.786 99.9342 45.458C98.7862 46.13 97.2602 46.634 95.3562 46.97C93.4522 47.278 91.0862 47.432 88.2582 47.432ZM88.2582 39.536V41.594H90.3162C91.5482 41.594 92.4302 41.468 92.9622 41.216C93.5222 40.964 93.8022 40.376 93.8022 39.452V37.394H91.7442C90.5122 37.394 89.6162 37.52 89.0562 37.772C88.5242 38.024 88.2582 38.612 88.2582 39.536ZM106.895 30.8H111.935L114.455 33.32C117.563 31.136 120.923 30.044 124.535 30.044C126.915 30.044 128.763 30.562 130.079 31.598C131.423 32.606 132.095 34.02 132.095 35.84V56H122.015V38.36H120.461C119.313 38.36 118.445 38.486 117.857 38.738C117.269 38.962 116.975 39.48 116.975 40.292V56H106.895V30.8ZM137.885 37.31H135.365V30.8H137.885V26.768L147.965 24.248V30.8H151.451V37.31H147.965V48.776C148.385 48.86 148.847 48.944 149.351 49.028C149.855 49.084 150.387 49.126 150.947 49.154L150.485 56.546C145.893 56.546 142.897 56.294 141.497 55.79C140.321 55.37 139.425 54.838 138.809 54.194C138.193 53.522 137.885 52.542 137.885 51.254V37.31ZM157.647 31.808C159.803 30.632 162.757 30.044 166.509 30.044C170.289 30.044 173.747 30.562 176.883 31.598L175.707 38.444C174.391 38.052 173.089 37.772 171.801 37.604C170.513 37.436 169.197 37.352 167.853 37.352C167.461 37.352 166.971 37.366 166.383 37.394C165.823 37.422 165.179 37.478 164.451 37.562V39.158C165.991 39.158 167.573 39.242 169.197 39.41C170.821 39.55 172.291 39.914 173.607 40.502C174.951 41.062 176.043 41.916 176.883 43.064C177.751 44.184 178.185 45.724 178.185 47.684C178.185 49.056 178.031 50.288 177.723 51.38C177.415 52.444 176.939 53.298 176.295 53.942C175.623 54.586 174.923 55.104 174.195 55.496C173.495 55.888 172.571 56.168 171.423 56.336C170.527 56.476 169.561 56.574 168.525 56.63C167.517 56.714 166.425 56.756 165.249 56.756C161.133 56.756 157.367 56.266 153.951 55.286L155.211 48.146C156.639 48.566 158.109 48.888 159.621 49.112C161.133 49.336 162.715 49.448 164.367 49.448C165.123 49.448 165.837 49.434 166.509 49.406C167.209 49.378 167.881 49.322 168.525 49.238V47.642C165.837 47.642 163.583 47.474 161.763 47.138C159.971 46.774 158.515 46.228 157.395 45.5C156.303 44.772 155.519 43.82 155.043 42.644C154.595 41.468 154.371 40.068 154.371 38.444C154.371 35.196 155.463 32.984 157.647 31.808ZM182.716 37.31H180.196V30.8H182.716V26.768L192.796 24.248V30.8H196.282V37.31H192.796V48.776C193.216 48.86 193.678 48.944 194.182 49.028C194.686 49.084 195.218 49.126 195.778 49.154L195.316 56.546C190.724 56.546 187.728 56.294 186.328 55.79C185.152 55.37 184.256 54.838 183.64 54.194C183.024 53.522 182.716 52.542 182.716 51.254V37.31ZM211.969 30.044C220.033 30.044 224.065 32.816 224.065 38.36V56H219.025L216.169 53.144C215.665 53.704 215.063 54.208 214.363 54.656C213.691 55.104 212.963 55.482 212.179 55.79C211.395 56.098 210.597 56.336 209.785 56.504C208.973 56.672 208.189 56.756 207.433 56.756C206.005 56.756 204.717 56.602 203.569 56.294C202.449 56.014 201.497 55.552 200.713 54.908C199.929 54.264 199.327 53.41 198.907 52.346C198.487 51.282 198.277 49.98 198.277 48.44C198.277 42.392 202.841 39.368 211.969 39.368H213.985V37.562C213.453 37.534 212.963 37.506 212.515 37.478C212.095 37.45 211.703 37.436 211.339 37.436C207.559 37.436 204.297 37.898 201.553 38.822L200.335 31.598C203.695 30.562 207.573 30.044 211.969 30.044ZM208.441 47.348V49.406H210.541C211.997 49.406 212.949 49.238 213.397 48.902C213.789 48.538 213.985 48.104 213.985 47.6V45.206H211.927C210.723 45.206 209.841 45.332 209.281 45.584C208.721 45.836 208.441 46.424 208.441 47.348ZM227.244 62.804L228.546 55.286C231.43 56.266 234.776 56.756 238.584 56.756C239.144 56.756 239.62 56.742 240.012 56.714C240.432 56.714 240.754 56.7 240.978 56.672V54.908C239.466 54.908 238.234 54.88 237.282 54.824C236.33 54.74 235.616 54.628 235.14 54.488C234.188 54.236 233.586 53.984 233.334 53.732C233.026 53.48 232.844 53.284 232.788 53.144C232.732 52.976 232.704 52.738 232.704 52.43L234.216 48.104C231.808 47.656 229.974 46.746 228.714 45.374C227.454 43.974 226.824 41.804 226.824 38.864C226.824 35.952 227.818 33.754 229.806 32.27C231.794 30.786 235.014 30.044 239.466 30.044C240.278 30.044 241.034 30.072 241.734 30.128C242.434 30.156 243.106 30.226 243.75 30.338L248.16 26.978L253.452 32.06L250.554 35.42C251.002 36.568 251.226 38.08 251.226 39.956C251.226 41.272 251.072 42.42 250.764 43.4C250.456 44.38 249.938 45.206 249.21 45.878C248.51 46.55 247.586 47.082 246.438 47.474C245.29 47.838 243.862 48.09 242.154 48.23L241.944 49.448C243.764 49.56 245.304 49.742 246.564 49.994C247.824 50.218 248.846 50.582 249.63 51.086C250.414 51.59 250.974 52.234 251.31 53.018C251.674 53.802 251.856 54.796 251.856 56C251.856 58.016 251.45 59.584 250.638 60.704C249.826 61.824 248.762 62.65 247.446 63.182C246.158 63.714 244.688 64.036 243.036 64.148C241.412 64.26 239.774 64.316 238.122 64.316C234.79 64.316 231.164 63.812 227.244 62.804ZM236.316 38.864V42.14H237.87C239.074 42.14 239.956 42.014 240.516 41.762C241.076 41.51 241.356 40.936 241.356 40.04V36.764H239.76C238.556 36.764 237.674 36.89 237.114 37.142C236.582 37.394 236.316 37.968 236.316 38.864ZM265.405 47.432V49.196C265.909 49.252 266.413 49.294 266.917 49.322C267.421 49.35 267.925 49.364 268.429 49.364C271.565 49.364 274.729 48.86 277.921 47.852L279.097 55.244C275.317 56.252 271.593 56.756 267.925 56.756C263.221 56.756 259.819 55.664 257.719 53.48C255.619 51.268 254.569 47.908 254.569 43.4C254.569 38.892 255.619 35.546 257.719 33.362C259.847 31.15 263.249 30.044 267.925 30.044C270.277 30.044 272.237 30.198 273.805 30.506C275.373 30.786 276.633 31.276 277.585 31.976C278.565 32.648 279.251 33.572 279.643 34.748C280.063 35.896 280.273 37.352 280.273 39.116C280.273 40.572 280.021 41.832 279.517 42.896C279.041 43.932 278.229 44.786 277.081 45.458C275.933 46.13 274.407 46.634 272.503 46.97C270.599 47.278 268.233 47.432 265.405 47.432ZM265.405 39.536V41.594H267.463C268.695 41.594 269.577 41.468 270.109 41.216C270.669 40.964 270.949 40.376 270.949 39.452V37.394H268.891C267.659 37.394 266.763 37.52 266.203 37.772C265.671 38.024 265.405 38.612 265.405 39.536Z"/>
</mask>
<path d="M45.68 36.806H48.68V33.806H45.68V36.806ZM45.68 44.114V47.114H48.68V44.114H45.68ZM35.6 44.114V41.114H32.6V44.114H35.6ZM35.6 47.936H32.6V50.936H35.6V47.936ZM47.948 47.936H50.948V44.936H47.948V47.936ZM47.948 56V59H50.948V56H47.948ZM25.52 56H22.52V59H25.52V56ZM25.52 24.5V21.5H22.52V24.5H25.52ZM47.696 24.5L50.66 24.9631L51.2011 21.5H47.696V24.5ZM46.436 32.564V35.564H49.0037L49.4 33.0271L46.436 32.564ZM35.6 32.564V29.564H32.6V32.564H35.6ZM35.6 36.806H32.6V39.806H35.6V36.806ZM45.68 36.806H42.68V44.114H45.68H48.68V36.806H45.68ZM45.68 44.114V41.114H35.6V44.114V47.114H45.68V44.114ZM35.6 44.114H32.6V47.936H35.6H38.6V44.114H35.6ZM35.6 47.936V50.936H47.948V47.936V44.936H35.6V47.936ZM47.948 47.936H44.948V56H47.948H50.948V47.936H47.948ZM47.948 56V53H25.52V56V59H47.948V56ZM25.52 56H28.52V24.5H25.52H22.52V56H25.52ZM25.52 24.5V27.5H47.696V24.5V21.5H25.52V24.5ZM47.696 24.5L44.732 24.0369L43.472 32.1009L46.436 32.564L49.4 33.0271L50.66 24.9631L47.696 24.5ZM46.436 32.564V29.564H35.6V32.564V35.564H46.436V32.564ZM35.6 32.564H32.6V36.806H35.6H38.6V32.564H35.6ZM35.6 36.806V39.806H45.68V36.806V33.806H35.6V36.806ZM69.6092 56V59H71.9515L72.5196 56.7276L69.6092 56ZM56.0012 56L53.0907 56.7276L53.6588 59H56.0012V56ZM49.7012 30.8V27.8H45.8588L46.7907 31.5276L49.7012 30.8ZM59.7812 30.8L62.7391 30.2994L62.3161 27.8H59.7812V30.8ZM62.5532 47.18L59.5952 47.6806L60.0182 50.18H62.5532V47.18ZM63.0572 47.18V50.18H65.5921L66.0151 47.6806L63.0572 47.18ZM65.8292 30.8V27.8H63.2942L62.8712 30.2994L65.8292 30.8ZM75.9092 30.8L78.8196 31.5276L79.7515 27.8H75.9092V30.8ZM69.6092 56V53H56.0012V56V59H69.6092V56ZM56.0012 56L58.9116 55.2724L52.6116 30.0724L49.7012 30.8L46.7907 31.5276L53.0907 56.7276L56.0012 56ZM49.7012 30.8V33.8H59.7812V30.8V27.8H49.7012V30.8ZM59.7812 30.8L56.8232 31.3006L59.5952 47.6806L62.5532 47.18L65.5111 46.6794L62.7391 30.2994L59.7812 30.8ZM62.5532 47.18V50.18H63.0572V47.18V44.18H62.5532V47.18ZM63.0572 47.18L66.0151 47.6806L68.7871 31.3006L65.8292 30.8L62.8712 30.2994L60.0992 46.6794L63.0572 47.18ZM65.8292 30.8V33.8H75.9092V30.8V27.8H65.8292V30.8ZM75.9092 30.8L72.9987 30.0724L66.6987 55.2724L69.6092 56L72.5196 56.7276L78.8196 31.5276L75.9092 30.8ZM88.2582 47.432V44.432H85.2582V47.432H88.2582ZM88.2582 49.196H85.2582V51.8811L87.9269 52.1777L88.2582 49.196ZM100.774 47.852L103.737 47.3807L103.19 43.9431L99.8708 44.9913L100.774 47.852ZM101.95 55.244L102.723 58.1427L105.338 57.4454L104.913 54.7727L101.95 55.244ZM80.5722 53.48L78.3965 55.5455L78.403 55.5524L78.4097 55.5593L80.5722 53.48ZM80.5722 33.362L78.4102 31.2821L78.4097 31.2827L80.5722 33.362ZM96.6582 30.506L96.0799 33.4497L96.1053 33.4547L96.1308 33.4593L96.6582 30.506ZM100.438 31.976L98.661 34.393L98.7008 34.4222L98.7416 34.4502L100.438 31.976ZM102.496 34.748L99.6501 35.6967L99.6639 35.7379L99.6788 35.7787L102.496 34.748ZM102.37 42.896L99.6589 41.6117L99.6514 41.6276L99.6441 41.6435L102.37 42.896ZM99.9342 45.458L98.4186 42.869L98.4186 42.869L99.9342 45.458ZM95.3562 46.97L95.8352 49.9315L95.8564 49.9281L95.8775 49.9244L95.3562 46.97ZM88.2582 41.594H85.2582V44.594H88.2582V41.594ZM92.9622 41.216L91.7311 38.4802L91.7044 38.4923L91.6779 38.5048L92.9622 41.216ZM93.8022 37.394H96.8022V34.394H93.8022V37.394ZM89.0562 37.772L87.8251 35.0362L87.7984 35.0483L87.7719 35.0608L89.0562 37.772ZM88.2582 47.432H85.2582V49.196H88.2582H91.2582V47.432H88.2582ZM88.2582 49.196L87.9269 52.1777C88.4854 52.2397 89.0444 52.2863 89.6037 52.3174L89.7702 49.322L89.9366 46.3266C89.4879 46.3017 89.0389 46.2643 88.5894 46.2143L88.2582 49.196ZM89.7702 49.322L89.6037 52.3174C90.1631 52.3485 90.7226 52.364 91.2822 52.364V49.364V46.364C90.8337 46.364 90.3852 46.3515 89.9366 46.3266L89.7702 49.322ZM91.2822 49.364V52.364C94.7446 52.364 98.213 51.8068 101.678 50.7127L100.774 47.852L99.8708 44.9913C96.9513 45.9132 94.0917 46.364 91.2822 46.364V49.364ZM100.774 47.852L97.8114 48.3233L98.9874 55.7153L101.95 55.244L104.913 54.7727L103.737 47.3807L100.774 47.852ZM101.95 55.244L101.177 52.3453C97.6326 53.2905 94.1684 53.756 90.7782 53.756V56.756V59.756C94.7239 59.756 98.7077 59.2135 102.723 58.1427L101.95 55.244ZM90.7782 56.756V53.756C86.4481 53.756 84.0224 52.7399 82.7347 51.4007L80.5722 53.48L78.4097 55.5593C81.3219 58.5881 85.7002 59.756 90.7782 59.756V56.756ZM80.5722 53.48L82.7478 51.4145C81.3828 49.9766 80.4222 47.5017 80.4222 43.4H77.4222H74.4222C74.4222 48.3143 75.5615 52.5594 78.3965 55.5455L80.5722 53.48ZM77.4222 43.4H80.4222C80.4222 39.2945 81.3843 36.8457 82.7347 35.4413L80.5722 33.362L78.4097 31.2827C75.56 34.2463 74.4222 38.4895 74.4222 43.4H77.4222ZM80.5722 33.362L82.7341 35.4419C84.059 34.0648 86.4961 33.044 90.7782 33.044V30.044V27.044C85.7082 27.044 81.3414 28.2352 78.4102 31.2821L80.5722 33.362ZM90.7782 30.044V33.044C93.0178 33.044 94.7686 33.1922 96.0799 33.4497L96.6582 30.506L97.2364 27.5623C95.4117 27.2038 93.2425 27.044 90.7782 27.044V30.044ZM96.6582 30.506L96.1308 33.4593C97.3963 33.6853 98.1846 34.0427 98.661 34.393L100.438 31.976L102.215 29.559C100.788 28.5093 99.056 27.8867 97.1855 27.5527L96.6582 30.506ZM100.438 31.976L98.7416 34.4502C99.158 34.7357 99.4552 35.1121 99.6501 35.6967L102.496 34.748L105.342 33.7993C104.753 32.0319 103.678 30.5603 102.135 29.5018L100.438 31.976ZM102.496 34.748L99.6788 35.7787C99.9372 36.4851 100.126 37.5613 100.126 39.116H103.126H106.126C106.126 37.1427 105.895 35.3069 105.314 33.7173L102.496 34.748ZM103.126 39.116H100.126C100.126 40.2305 99.9332 41.0327 99.6589 41.6117L102.37 42.896L105.081 44.1803C105.815 42.6313 106.126 40.9135 106.126 39.116H103.126ZM102.37 42.896L99.6441 41.6435C99.4658 42.0316 99.1267 42.4545 98.4186 42.869L99.9342 45.458L101.45 48.047C103.038 47.1175 104.322 45.8324 105.096 44.1485L102.37 42.896ZM99.9342 45.458L98.4186 42.869C97.6832 43.2995 96.5332 43.7159 94.8348 44.0156L95.3562 46.97L95.8775 49.9244C97.9871 49.5521 99.8891 48.9605 101.45 48.047L99.9342 45.458ZM95.3562 46.97L94.8771 44.0085C93.186 44.2821 90.9924 44.432 88.2582 44.432V47.432V50.432C91.1799 50.432 93.7183 50.2739 95.8352 49.9315L95.3562 46.97ZM88.2582 39.536H85.2582V41.594H88.2582H91.2582V39.536H88.2582ZM88.2582 41.594V44.594H90.3162V41.594V38.594H88.2582V41.594ZM90.3162 41.594V44.594C91.6103 44.594 93.0713 44.4839 94.2464 43.9272L92.9622 41.216L91.6779 38.5048C91.7854 38.4538 91.7568 38.4897 91.4774 38.5297C91.2186 38.5666 90.8397 38.594 90.3162 38.594V41.594ZM92.9622 41.216L94.1933 43.9518C96.3347 42.9881 96.8022 40.8794 96.8022 39.452H93.8022H90.8022C90.8022 39.6419 90.7688 39.5373 90.8836 39.2962C90.9464 39.1643 91.0494 39.0016 91.2083 38.8427C91.3691 38.6819 91.551 38.5613 91.7311 38.4802L92.9622 41.216ZM93.8022 39.452H96.8022V37.394H93.8022H90.8022V39.452H93.8022ZM93.8022 37.394V34.394H91.7442V37.394V40.394H93.8022V37.394ZM91.7442 37.394V34.394C90.4299 34.394 88.9948 34.5099 87.8251 35.0362L89.0562 37.772L90.2873 40.5078C90.2177 40.539 90.2792 40.4996 90.5659 40.4593C90.8362 40.4213 91.2217 40.394 91.7442 40.394V37.394ZM89.0562 37.772L87.7719 35.0608C85.6634 36.0596 85.2582 38.1828 85.2582 39.536H88.2582H91.2582C91.2582 39.33 91.2926 39.414 91.191 39.6385C91.1348 39.7628 91.0383 39.9258 90.882 40.0902C90.723 40.2577 90.536 40.3906 90.3404 40.4832L89.0562 37.772ZM106.895 30.8V27.8H103.895V30.8H106.895ZM111.935 30.8L114.056 28.6787L113.178 27.8H111.935V30.8ZM114.455 33.32L112.334 35.4413L114.117 37.2243L116.18 35.7746L114.455 33.32ZM130.079 31.598L128.223 33.9552L128.251 33.9769L128.279 33.998L130.079 31.598ZM132.095 56V59H135.095V56H132.095ZM122.015 56H119.015V59H122.015V56ZM122.015 38.36H125.015V35.36H122.015V38.36ZM117.857 38.738L118.925 41.5415L118.982 41.5196L119.039 41.4954L117.857 38.738ZM116.975 56V59H119.975V56H116.975ZM106.895 56H103.895V59H106.895V56ZM106.895 30.8V33.8H111.935V30.8V27.8H106.895V30.8ZM111.935 30.8L109.814 32.9213L112.334 35.4413L114.455 33.32L116.576 31.1987L114.056 28.6787L111.935 30.8ZM114.455 33.32L116.18 35.7746C118.81 33.9261 121.573 33.044 124.535 33.044V30.044V27.044C120.273 27.044 116.316 28.3459 112.73 30.8654L114.455 33.32ZM124.535 30.044V33.044C126.518 33.044 127.619 33.4794 128.223 33.9552L130.079 31.598L131.935 29.2408C129.907 27.6446 127.312 27.044 124.535 27.044V30.044ZM130.079 31.598L128.279 33.998C128.797 34.3869 129.095 34.8731 129.095 35.84H132.095H135.095C135.095 33.1669 134.049 30.8251 131.879 29.198L130.079 31.598ZM132.095 35.84H129.095V56H132.095H135.095V35.84H132.095ZM132.095 56V53H122.015V56V59H132.095V56ZM122.015 56H125.015V38.36H122.015H119.015V56H122.015ZM122.015 38.36V35.36H120.461V38.36V41.36H122.015V38.36ZM120.461 38.36V35.36C119.178 35.36 117.824 35.4881 116.675 35.9806L117.857 38.738L119.039 41.4954C119.023 41.5023 119.116 41.4617 119.38 41.4234C119.635 41.3863 119.99 41.36 120.461 41.36V38.36ZM117.857 38.738L116.789 35.9345C115.883 36.2797 115.098 36.9121 114.586 37.8137C114.107 38.6588 113.975 39.5475 113.975 40.292H116.975H119.975C119.975 40.2245 119.99 40.4482 119.805 40.7753C119.587 41.1589 119.243 41.4203 118.925 41.5415L117.857 38.738ZM116.975 40.292H113.975V56H116.975H119.975V40.292H116.975ZM116.975 56V53H106.895V56V59H116.975V56ZM106.895 56H109.895V30.8H106.895H103.895V56H106.895ZM137.885 37.31H140.885V34.31H137.885V37.31ZM135.365 37.31H132.365V40.31H135.365V37.31ZM135.365 30.8V27.8H132.365V30.8H135.365ZM137.885 30.8V33.8H140.885V30.8H137.885ZM137.885 26.768L137.158 23.8576L134.885 24.4257V26.768H137.885ZM147.965 24.248H150.965V20.4057L147.238 21.3376L147.965 24.248ZM147.965 30.8H144.965V33.8H147.965V30.8ZM151.451 30.8H154.451V27.8H151.451V30.8ZM151.451 37.31V40.31H154.451V37.31H151.451ZM147.965 37.31V34.31H144.965V37.31H147.965ZM147.965 48.776H144.965V51.2354L147.377 51.7177L147.965 48.776ZM149.351 49.028L148.858 51.9872L148.939 52.0006L149.02 52.0097L149.351 49.028ZM150.947 49.154L153.942 49.3411L154.131 46.3094L151.097 46.1577L150.947 49.154ZM150.485 56.546V59.546H153.304L153.48 56.7331L150.485 56.546ZM141.497 55.79L142.514 52.9673L142.506 52.9648L141.497 55.79ZM138.809 54.194L136.598 56.2212L136.619 56.2447L136.641 56.2677L138.809 54.194ZM137.885 37.31V34.31H135.365V37.31V40.31H137.885V37.31ZM135.365 37.31H138.365V30.8H135.365H132.365V37.31H135.365ZM135.365 30.8V33.8H137.885V30.8V27.8H135.365V30.8ZM137.885 30.8H140.885V26.768H137.885H134.885V30.8H137.885ZM137.885 26.768L138.613 29.6784L148.693 27.1584L147.965 24.248L147.238 21.3376L137.158 23.8576L137.885 26.768ZM147.965 24.248H144.965V30.8H147.965H150.965V24.248H147.965ZM147.965 30.8V33.8H151.451V30.8V27.8H147.965V30.8ZM151.451 30.8H148.451V37.31H151.451H154.451V30.8H151.451ZM151.451 37.31V34.31H147.965V37.31V40.31H151.451V37.31ZM147.965 37.31H144.965V48.776H147.965H150.965V37.31H147.965ZM147.965 48.776L147.377 51.7177C147.834 51.8091 148.328 51.8989 148.858 51.9872L149.351 49.028L149.845 46.0688C149.367 45.9891 148.937 45.9109 148.554 45.8343L147.965 48.776ZM149.351 49.028L149.02 52.0097C149.59 52.073 150.183 52.1195 150.798 52.1503L150.947 49.154L151.097 46.1577C150.592 46.1325 150.12 46.095 149.683 46.0463L149.351 49.028ZM150.947 49.154L147.953 48.9669L147.491 56.3589L150.485 56.546L153.48 56.7331L153.942 49.3411L150.947 49.154ZM150.485 56.546V53.546C148.235 53.546 146.429 53.4839 145.046 53.3676C143.6 53.246 142.827 53.0801 142.514 52.9673L141.497 55.79L140.481 58.6127C141.568 59.0039 142.993 59.216 144.543 59.3464C146.156 59.4821 148.144 59.546 150.485 59.546V56.546ZM141.497 55.79L142.506 52.9648C141.604 52.6426 141.168 52.3196 140.977 52.1203L138.809 54.194L136.641 56.2677C137.683 57.3564 139.039 58.0974 140.488 58.6152L141.497 55.79ZM138.809 54.194L141.021 52.1668C141.088 52.2403 140.885 52.1008 140.885 51.254H137.885H134.885C134.885 52.9832 135.299 54.8037 136.598 56.2212L138.809 54.194ZM137.885 51.254H140.885V37.31H137.885H134.885V51.254H137.885ZM157.647 31.808L159.07 34.4494L159.077 34.4456L159.084 34.4417L157.647 31.808ZM176.883 31.598L179.84 32.1059L180.277 29.5598L177.824 28.7494L176.883 31.598ZM175.707 38.444L174.851 41.3192L178.092 42.2845L178.664 38.9519L175.707 38.444ZM171.801 37.604L171.413 40.5788L171.413 40.5788L171.801 37.604ZM166.383 37.394L166.241 34.3974L166.234 34.3977L166.383 37.394ZM164.451 37.562L164.108 34.5818L161.451 34.8883V37.562H164.451ZM164.451 39.158H161.451V42.158H164.451V39.158ZM169.197 39.41L168.889 42.3941L168.914 42.3967L168.94 42.3989L169.197 39.41ZM173.607 40.502L172.384 43.241L172.418 43.2566L172.454 43.2712L173.607 40.502ZM176.883 43.064L174.462 44.8355L174.487 44.869L174.512 44.9017L176.883 43.064ZM177.723 51.38L180.605 52.2142L180.608 52.2043L180.611 52.1944L177.723 51.38ZM176.295 53.942L178.371 56.108L178.394 56.0859L178.417 56.0633L176.295 53.942ZM174.195 55.496L172.773 52.8546L172.751 52.8664L172.73 52.8785L174.195 55.496ZM171.423 56.336L170.989 53.3676L170.975 53.3697L170.96 53.372L171.423 56.336ZM168.525 56.63L168.363 53.6344L168.32 53.6367L168.276 53.6404L168.525 56.63ZM153.951 55.286L150.997 54.7646L150.528 57.4248L153.124 58.1697L153.951 55.286ZM155.211 48.146L156.058 45.2679L152.84 44.3215L152.257 47.6246L155.211 48.146ZM159.621 49.112L159.182 52.0796L159.182 52.0796L159.621 49.112ZM166.509 49.406L166.39 46.4084L166.385 46.4086L166.509 49.406ZM168.525 49.238L168.913 52.2128L171.525 51.8721V49.238H168.525ZM168.525 47.642H171.525V44.642H168.525V47.642ZM161.763 47.138L161.166 50.078L161.192 50.0833L161.219 50.0881L161.763 47.138ZM157.395 45.5L155.731 47.9962L155.746 48.0058L155.76 48.0153L157.395 45.5ZM155.043 42.644L152.24 43.712L152.251 43.7409L152.263 43.7696L155.043 42.644ZM157.647 31.808L159.084 34.4417C160.627 33.6002 163.017 33.044 166.509 33.044V30.044V27.044C162.498 27.044 158.98 27.6638 156.211 29.1743L157.647 31.808ZM166.509 30.044V33.044C170.015 33.044 173.15 33.5242 175.942 34.4466L176.883 31.598L177.824 28.7494C174.345 27.5998 170.564 27.044 166.509 27.044V30.044ZM176.883 31.598L173.927 31.0901L172.751 37.9361L175.707 38.444L178.664 38.9519L179.84 32.1059L176.883 31.598ZM175.707 38.444L176.564 35.5688C175.103 35.1338 173.645 34.819 172.189 34.6292L171.801 37.604L171.413 40.5788C172.534 40.725 173.68 40.9702 174.851 41.3192L175.707 38.444ZM171.801 37.604L172.189 34.6292C170.768 34.4438 169.323 34.352 167.853 34.352V37.352V40.352C169.072 40.352 170.258 40.4282 171.413 40.5788L171.801 37.604ZM167.853 37.352V34.352C167.397 34.352 166.855 34.3681 166.241 34.3974L166.383 37.394L166.526 40.3906C167.088 40.3639 167.526 40.352 167.853 40.352V37.352ZM166.383 37.394L166.234 34.3977C165.593 34.4298 164.882 34.4924 164.108 34.5818L164.451 37.562L164.795 40.5422C165.477 40.4636 166.054 40.4142 166.533 40.3903L166.383 37.394ZM164.451 37.562H161.451V39.158H164.451H167.451V37.562H164.451ZM164.451 39.158V42.158C165.882 42.158 167.361 42.2361 168.889 42.3941L169.197 39.41L169.506 36.4259C167.786 36.2479 166.1 36.158 164.451 36.158V39.158ZM169.197 39.41L168.94 42.3989C170.273 42.5139 171.411 42.8063 172.384 43.241L173.607 40.502L174.831 37.763C173.172 37.0217 171.37 36.5861 169.455 36.4211L169.197 39.41ZM173.607 40.502L172.454 43.2712C173.305 43.6258 173.954 44.1404 174.462 44.8355L176.883 43.064L179.304 41.2925C178.133 39.6916 176.598 38.4982 174.761 37.7328L173.607 40.502ZM176.883 43.064L174.512 44.9017C174.842 45.327 175.185 46.1384 175.185 47.684H178.185H181.185C181.185 45.3095 180.661 43.041 179.255 41.2263L176.883 43.064ZM178.185 47.684H175.185C175.185 48.8361 175.056 49.7871 174.836 50.5656L177.723 51.38L180.611 52.1944C181.007 50.7889 181.185 49.2759 181.185 47.684H178.185ZM177.723 51.38L174.842 50.5458C174.644 51.2279 174.39 51.6044 174.174 51.8207L176.295 53.942L178.417 56.0633C179.488 54.9916 180.187 53.6601 180.605 52.2142L177.723 51.38ZM176.295 53.942L174.22 51.776C173.719 52.2559 173.235 52.6058 172.773 52.8546L174.195 55.496L175.618 58.1374C176.612 57.6022 177.528 56.9161 178.371 56.108L176.295 53.942ZM174.195 55.496L172.73 52.8785C172.458 53.0308 171.922 53.231 170.989 53.3676L171.423 56.336L171.858 59.3044C173.22 59.105 174.533 58.7452 175.661 58.1135L174.195 55.496ZM171.423 56.336L170.96 53.372C170.177 53.4943 169.313 53.5831 168.363 53.6344L168.525 56.63L168.687 59.6256C169.81 59.5649 170.878 59.4577 171.887 59.3L171.423 56.336ZM168.525 56.63L168.276 53.6404C167.363 53.7165 166.355 53.756 165.249 53.756V56.756V59.756C166.496 59.756 167.672 59.7115 168.775 59.6196L168.525 56.63ZM165.249 56.756V53.756C161.37 53.756 157.887 53.2941 154.779 52.4023L153.951 55.286L153.124 58.1697C156.848 59.2379 160.897 59.756 165.249 59.756V56.756ZM153.951 55.286L156.906 55.8074L158.166 48.6674L155.211 48.146L152.257 47.6246L150.997 54.7646L153.951 55.286ZM155.211 48.146L154.365 51.0241C155.93 51.4844 157.536 51.8358 159.182 52.0796L159.621 49.112L160.061 46.1444C158.683 45.9402 157.349 45.6476 156.058 45.2679L155.211 48.146ZM159.621 49.112L159.182 52.0796C160.85 52.3268 162.58 52.448 164.367 52.448V49.448V46.448C162.851 46.448 161.416 46.3452 160.061 46.1444L159.621 49.112ZM164.367 49.448V52.448C165.16 52.448 165.916 52.4333 166.634 52.4034L166.509 49.406L166.385 46.4086C165.759 46.4347 165.087 46.448 164.367 46.448V49.448ZM166.509 49.406L166.629 52.4036C167.412 52.3723 168.174 52.3093 168.913 52.2128L168.525 49.238L168.137 46.2632C167.589 46.3347 167.007 46.3837 166.39 46.4084L166.509 49.406ZM168.525 49.238H171.525V47.642H168.525H165.525V49.238H168.525ZM168.525 47.642V44.642C165.946 44.642 163.888 44.4795 162.308 44.1879L161.763 47.138L161.219 50.0881C163.279 50.4685 165.729 50.642 168.525 50.642V47.642ZM161.763 47.138L162.361 44.198C160.811 43.8832 159.741 43.4466 159.03 42.9847L157.395 45.5L155.76 48.0153C157.29 49.0094 159.132 49.6648 161.166 50.078L161.763 47.138ZM157.395 45.5L159.06 43.0038C158.451 42.5979 158.066 42.1157 157.824 41.5184L155.043 42.644L152.263 43.7696C152.973 45.5243 154.156 46.9461 155.731 47.9962L157.395 45.5ZM155.043 42.644L157.847 41.576C157.56 40.8241 157.371 39.8039 157.371 38.444H154.371H151.371C151.371 40.3321 151.63 42.1119 152.24 43.712L155.043 42.644ZM154.371 38.444H157.371C157.371 35.9031 158.163 34.9377 159.07 34.4494L157.647 31.808L156.225 29.1666C152.764 31.0302 151.371 34.4889 151.371 38.444H154.371ZM182.716 37.31H185.716V34.31H182.716V37.31ZM180.196 37.31H177.196V40.31H180.196V37.31ZM180.196 30.8V27.8H177.196V30.8H180.196ZM182.716 30.8V33.8H185.716V30.8H182.716ZM182.716 26.768L181.988 23.8576L179.716 24.4257V26.768H182.716ZM192.796 24.248H195.796V20.4057L192.068 21.3376L192.796 24.248ZM192.796 30.8H189.796V33.8H192.796V30.8ZM196.282 30.8H199.282V27.8H196.282V30.8ZM196.282 37.31V40.31H199.282V37.31H196.282ZM192.796 37.31V34.31H189.796V37.31H192.796ZM192.796 48.776H189.796V51.2354L192.207 51.7177L192.796 48.776ZM194.182 49.028L193.688 51.9872L193.769 52.0006L193.85 52.0097L194.182 49.028ZM195.778 49.154L198.772 49.3411L198.961 46.3094L195.927 46.1577L195.778 49.154ZM195.316 56.546V59.546H198.134L198.31 56.7331L195.316 56.546ZM186.328 55.79L187.344 52.9673L187.337 52.9648L186.328 55.79ZM183.64 54.194L181.428 56.2212L181.45 56.2447L181.472 56.2677L183.64 54.194ZM182.716 37.31V34.31H180.196V37.31V40.31H182.716V37.31ZM180.196 37.31H183.196V30.8H180.196H177.196V37.31H180.196ZM180.196 30.8V33.8H182.716V30.8V27.8H180.196V30.8ZM182.716 30.8H185.716V26.768H182.716H179.716V30.8H182.716ZM182.716 26.768L183.443 29.6784L193.523 27.1584L192.796 24.248L192.068 21.3376L181.988 23.8576L182.716 26.768ZM192.796 24.248H189.796V30.8H192.796H195.796V24.248H192.796ZM192.796 30.8V33.8H196.282V30.8V27.8H192.796V30.8ZM196.282 30.8H193.282V37.31H196.282H199.282V30.8H196.282ZM196.282 37.31V34.31H192.796V37.31V40.31H196.282V37.31ZM192.796 37.31H189.796V48.776H192.796H195.796V37.31H192.796ZM192.796 48.776L192.207 51.7177C192.664 51.8091 193.158 51.8989 193.688 51.9872L194.182 49.028L194.675 46.0688C194.197 45.9891 193.767 45.9109 193.384 45.8343L192.796 48.776ZM194.182 49.028L193.85 52.0097C194.42 52.073 195.013 52.1195 195.628 52.1503L195.778 49.154L195.927 46.1577C195.422 46.1325 194.951 46.095 194.513 46.0463L194.182 49.028ZM195.778 49.154L192.783 48.9669L192.321 56.3589L195.316 56.546L198.31 56.7331L198.772 49.3411L195.778 49.154ZM195.316 56.546V53.546C193.065 53.546 191.259 53.4839 189.876 53.3676C188.43 53.246 187.657 53.0801 187.344 52.9673L186.328 55.79L185.311 58.6127C186.398 59.0039 187.823 59.216 189.373 59.3464C190.986 59.4821 192.974 59.546 195.316 59.546V56.546ZM186.328 55.79L187.337 52.9648C186.434 52.6426 185.998 52.3196 185.807 52.1203L183.64 54.194L181.472 56.2677C182.513 57.3564 183.869 58.0974 185.318 58.6152L186.328 55.79ZM183.64 54.194L185.851 52.1668C185.918 52.2403 185.716 52.1008 185.716 51.254H182.716H179.716C179.716 52.9832 180.129 54.8037 181.428 56.2212L183.64 54.194ZM182.716 51.254H185.716V37.31H182.716H179.716V51.254H182.716ZM224.065 56V59H227.065V56H224.065ZM219.025 56L216.904 58.1213L217.783 59H219.025V56ZM216.169 53.144L218.291 51.0227L216.055 48.7868L213.94 51.1371L216.169 53.144ZM214.363 54.656L212.746 52.1292L212.723 52.1443L212.699 52.1598L214.363 54.656ZM209.785 56.504L210.393 59.4418L210.393 59.4418L209.785 56.504ZM203.569 56.294L204.347 53.3965L204.322 53.3898L204.297 53.3836L203.569 56.294ZM200.713 54.908L202.618 52.5898L202.618 52.5898L200.713 54.908ZM198.907 52.346L201.698 51.2445L201.698 51.2445L198.907 52.346ZM213.985 39.368V42.368H216.985V39.368H213.985ZM213.985 37.562H216.985V34.7157L214.143 34.5661L213.985 37.562ZM212.515 37.478L212.316 40.4714L212.328 40.4722L212.515 37.478ZM201.553 38.822L198.595 39.3208L199.18 42.7869L202.511 41.6651L201.553 38.822ZM200.335 31.598L199.452 28.7312L196.94 29.5055L197.377 32.0968L200.335 31.598ZM208.441 49.406H205.441V52.406H208.441V49.406ZM213.397 48.902L215.197 51.302L215.323 51.2075L215.439 51.1004L213.397 48.902ZM213.985 45.206H216.985V42.206H213.985V45.206ZM209.281 45.584L208.05 42.8482L208.05 42.8482L209.281 45.584ZM211.969 30.044V33.044C215.751 33.044 218.056 33.7108 219.342 34.5951C220.426 35.3401 221.065 36.423 221.065 38.36H224.065H227.065C227.065 34.753 225.689 31.6779 222.741 29.6509C219.995 27.7632 216.252 27.044 211.969 27.044V30.044ZM224.065 38.36H221.065V56H224.065H227.065V38.36H224.065ZM224.065 56V53H219.025V56V59H224.065V56ZM219.025 56L221.147 53.8787L218.291 51.0227L216.169 53.144L214.048 55.2653L216.904 58.1213L219.025 56ZM216.169 53.144L213.94 51.1371C213.633 51.4777 213.243 51.8115 212.746 52.1292L214.363 54.656L215.981 57.1828C216.884 56.6045 217.698 55.9303 218.399 55.1509L216.169 53.144ZM214.363 54.656L212.699 52.1598C212.213 52.4842 211.676 52.7646 211.083 52.9977L212.179 55.79L213.276 58.5823C214.251 58.1994 215.17 57.7238 216.028 57.1522L214.363 54.656ZM212.179 55.79L211.083 52.9977C210.455 53.2444 209.82 53.4333 209.178 53.5662L209.785 56.504L210.393 59.4418C211.375 59.2387 212.336 58.9516 213.276 58.5823L212.179 55.79ZM209.785 56.504L209.178 53.5662C208.547 53.6968 207.967 53.756 207.433 53.756V56.756V59.756C208.412 59.756 209.4 59.6472 210.393 59.4418L209.785 56.504ZM207.433 56.756V53.756C206.217 53.756 205.196 53.6244 204.347 53.3965L203.569 56.294L202.792 59.1915C204.238 59.5796 205.794 59.756 207.433 59.756V56.756ZM203.569 56.294L204.297 53.3836C203.549 53.1965 203.014 52.9151 202.618 52.5898L200.713 54.908L198.809 57.2262C199.981 58.1889 201.35 58.8315 202.842 59.2044L203.569 56.294ZM200.713 54.908L202.618 52.5898C202.276 52.309 201.955 51.8957 201.698 51.2445L198.907 52.346L196.117 53.4475C196.7 54.9243 197.583 56.219 198.809 57.2262L200.713 54.908ZM198.907 52.346L201.698 51.2445C201.455 50.6297 201.277 49.7256 201.277 48.44H198.277H195.277C195.277 50.2344 195.52 51.9343 196.117 53.4475L198.907 52.346ZM198.277 48.44H201.277C201.277 46.2978 202.013 45.0279 203.357 44.1369C204.919 43.1021 207.642 42.368 211.969 42.368V39.368V36.368C207.169 36.368 203.046 37.1459 200.043 39.1351C196.824 41.2681 195.277 44.5342 195.277 48.44H198.277ZM211.969 39.368V42.368H213.985V39.368V36.368H211.969V39.368ZM213.985 39.368H216.985V37.562H213.985H210.985V39.368H213.985ZM213.985 37.562L214.143 34.5661C213.619 34.5386 213.139 34.5111 212.703 34.4838L212.515 37.478L212.328 40.4722C212.788 40.5009 213.288 40.5294 213.828 40.5579L213.985 37.562ZM212.515 37.478L212.715 34.4846C212.239 34.4529 211.779 34.436 211.339 34.436V37.436V40.436C211.628 40.436 211.952 40.4471 212.316 40.4714L212.515 37.478ZM211.339 37.436V34.436C207.328 34.436 203.726 34.9248 200.596 35.9789L201.553 38.822L202.511 41.6651C204.869 40.8712 207.791 40.436 211.339 40.436V37.436ZM201.553 38.822L204.512 38.3232L203.294 31.0992L200.335 31.598L197.377 32.0968L198.595 39.3208L201.553 38.822ZM200.335 31.598L201.219 34.4648C204.232 33.536 207.802 33.044 211.969 33.044V30.044V27.044C207.345 27.044 203.159 27.588 199.452 28.7312L200.335 31.598ZM208.441 47.348H205.441V49.406H208.441H211.441V47.348H208.441ZM208.441 49.406V52.406H210.541V49.406V46.406H208.441V49.406ZM210.541 49.406V52.406C211.366 52.406 212.158 52.3598 212.869 52.2344C213.517 52.1199 214.416 51.8884 215.197 51.302L213.397 48.902L211.597 46.502C211.788 46.3591 211.931 46.3069 211.951 46.2998C211.976 46.2907 211.943 46.3051 211.826 46.3256C211.585 46.3682 211.173 46.406 210.541 46.406V49.406ZM213.397 48.902L215.439 51.1004C216.4 50.2079 216.985 48.994 216.985 47.6H213.985H210.985C210.985 47.4515 211.017 47.2622 211.104 47.0687C211.19 46.8793 211.295 46.76 211.356 46.7036L213.397 48.902ZM213.985 47.6H216.985V45.206H213.985H210.985V47.6H213.985ZM213.985 45.206V42.206H211.927V45.206V48.206H213.985V45.206ZM211.927 45.206V42.206C210.629 42.206 209.215 42.3243 208.05 42.8482L209.281 45.584L210.513 48.3198C210.449 48.3484 210.511 48.3098 210.787 48.2703C211.049 48.233 211.422 48.206 211.927 48.206V45.206ZM209.281 45.584L208.05 42.8482C205.909 43.8119 205.441 45.9206 205.441 47.348H208.441H211.441C211.441 47.1581 211.475 47.2627 211.36 47.5038C211.297 47.6357 211.194 47.7984 211.035 47.9573C210.875 48.1181 210.693 48.2387 210.513 48.3198L209.281 45.584ZM227.244 62.804L224.288 62.2921L223.816 65.02L226.497 65.7095L227.244 62.804ZM228.546 55.286L229.512 52.4455L226.189 51.3165L225.59 54.7741L228.546 55.286ZM240.012 56.714V53.714H239.905L239.799 53.7216L240.012 56.714ZM240.978 56.672L241.35 59.6488L243.978 59.3203V56.672H240.978ZM240.978 54.908H243.978V51.908H240.978V54.908ZM237.282 54.824L237.019 57.8124L237.062 57.8162L237.106 57.8188L237.282 54.824ZM235.14 54.488L235.987 51.6099L235.948 51.5984L235.908 51.5879L235.14 54.488ZM233.334 53.732L235.456 51.6107L235.35 51.5049L235.234 51.4101L233.334 53.732ZM232.788 53.144L229.942 54.0927L229.97 54.1763L230.003 54.2582L232.788 53.144ZM232.704 52.43L229.872 51.4402L229.704 51.9208V52.43H232.704ZM234.216 48.104L237.048 49.0938L238.202 45.794L234.765 45.1546L234.216 48.104ZM228.714 45.374L226.484 47.3809L226.495 47.3921L226.505 47.4032L228.714 45.374ZM229.806 32.27L231.601 34.6741L231.601 34.6741L229.806 32.27ZM241.734 30.128L241.495 33.1184L241.555 33.1232L241.614 33.1256L241.734 30.128ZM243.75 30.338L243.236 33.2936L244.527 33.518L245.568 32.7243L243.75 30.338ZM248.16 26.978L250.238 24.8142L248.386 23.0349L246.342 24.5917L248.16 26.978ZM253.452 32.06L255.724 34.0194L257.581 31.8659L255.53 29.8962L253.452 32.06ZM250.554 35.42L248.283 33.4606L247.103 34.8282L247.76 36.5106L250.554 35.42ZM250.764 43.4L247.902 42.5005L247.902 42.5005L250.764 43.4ZM249.21 45.878L247.176 43.6736L247.154 43.6935L247.133 43.7138L249.21 45.878ZM246.438 47.474L247.345 50.3337L247.377 50.3237L247.408 50.313L246.438 47.474ZM242.154 48.23L241.909 45.24L239.593 45.4299L239.198 47.7203L242.154 48.23ZM241.944 49.448L238.988 48.9383L238.419 52.2367L241.76 52.4423L241.944 49.448ZM246.564 49.994L245.976 52.9357L246.008 52.9421L246.039 52.9477L246.564 49.994ZM251.31 53.018L248.553 54.1998L248.571 54.2408L248.589 54.2813L251.31 53.018ZM250.638 60.704L248.21 58.9431L248.21 58.9431L250.638 60.704ZM247.446 63.182L246.322 60.4007L246.312 60.4049L246.301 60.4092L247.446 63.182ZM243.036 64.148L242.833 61.1549L242.83 61.1551L243.036 64.148ZM236.316 42.14H233.316V45.14H236.316V42.14ZM241.356 36.764H244.356V33.764H241.356V36.764ZM237.114 37.142L235.883 34.4062L235.857 34.4183L235.83 34.4308L237.114 37.142ZM227.244 62.804L230.2 63.3159L231.502 55.7979L228.546 55.286L225.59 54.7741L224.288 62.2921L227.244 62.804ZM228.546 55.286L227.581 58.1265C230.843 59.2347 234.527 59.756 238.584 59.756V56.756V53.756C235.026 53.756 232.018 53.2973 229.512 52.4455L228.546 55.286ZM238.584 56.756V59.756C239.188 59.756 239.74 59.7411 240.226 59.7064L240.012 56.714L239.799 53.7216C239.501 53.7429 239.1 53.756 238.584 53.756V56.756ZM240.012 56.714V59.714C240.47 59.714 240.94 59.7002 241.35 59.6488L240.978 56.672L240.606 53.6952C240.607 53.6951 240.603 53.6956 240.595 53.6963C240.588 53.6971 240.577 53.6981 240.562 53.6992C240.532 53.7015 240.491 53.704 240.439 53.7063C240.332 53.711 240.191 53.714 240.012 53.714V56.714ZM240.978 56.672H243.978V54.908H240.978H237.978V56.672H240.978ZM240.978 54.908V51.908C239.495 51.908 238.328 51.8803 237.459 51.8292L237.282 54.824L237.106 57.8188C238.14 57.8797 239.437 57.908 240.978 57.908V54.908ZM237.282 54.824L237.546 51.8356C236.646 51.7562 236.171 51.664 235.987 51.6099L235.14 54.488L234.294 57.3661C235.062 57.592 236.015 57.7238 237.019 57.8124L237.282 54.824ZM235.14 54.488L235.908 51.5879C235.505 51.4813 235.261 51.396 235.133 51.3427C235.072 51.317 235.073 51.3131 235.114 51.3374C235.147 51.3568 235.286 51.4408 235.456 51.6107L233.334 53.732L231.213 55.8533C231.757 56.3972 232.404 56.7049 232.816 56.8773C233.291 57.076 233.823 57.2427 234.373 57.3881L235.14 54.488ZM233.334 53.732L235.234 51.4101C235.14 51.3333 235.13 51.3169 235.165 51.3546C235.185 51.3755 235.237 51.4333 235.302 51.5254C235.363 51.6113 235.475 51.7825 235.574 52.0298L232.788 53.144L230.003 54.2582C230.235 54.8392 230.59 55.2451 230.768 55.4374C230.986 55.6711 231.221 55.8787 231.435 56.0539L233.334 53.732ZM232.788 53.144L235.634 52.1953C235.663 52.282 235.68 52.3514 235.689 52.3971C235.699 52.4433 235.703 52.4751 235.705 52.489C235.708 52.5136 235.704 52.498 235.704 52.43H232.704H229.704C229.704 52.8592 229.736 53.4733 229.942 54.0927L232.788 53.144ZM232.704 52.43L235.536 53.4198L237.048 49.0938L234.216 48.104L231.384 47.1142L229.872 51.4402L232.704 52.43ZM234.216 48.104L234.765 45.1546C232.795 44.7881 231.624 44.1071 230.924 43.3448L228.714 45.374L226.505 47.4032C228.325 49.3849 230.822 50.5239 233.668 51.0534L234.216 48.104ZM228.714 45.374L230.944 43.3671C230.394 42.7555 229.824 41.4609 229.824 38.864H226.824H223.824C223.824 42.1471 224.515 45.1925 226.484 47.3809L228.714 45.374ZM226.824 38.864H229.824C229.824 36.7122 230.509 35.4888 231.601 34.6741L229.806 32.27L228.012 29.8659C225.127 32.0192 223.824 35.1918 223.824 38.864H226.824ZM229.806 32.27L231.601 34.6741C232.798 33.7803 235.209 33.044 239.466 33.044V30.044V27.044C234.82 27.044 230.791 27.7917 228.012 29.8659L229.806 32.27ZM239.466 30.044V33.044C240.211 33.044 240.886 33.0697 241.495 33.1184L241.734 30.128L241.974 27.1376C241.183 27.0743 240.346 27.044 239.466 27.044V30.044ZM241.734 30.128L241.614 33.1256C242.192 33.1487 242.732 33.2058 243.236 33.2936L243.75 30.338L244.264 27.3824C243.481 27.2462 242.677 27.1633 241.854 27.1304L241.734 30.128ZM243.75 30.338L245.568 32.7243L249.978 29.3643L248.16 26.978L246.342 24.5917L241.932 27.9517L243.75 30.338ZM248.16 26.978L246.082 29.1418L251.374 34.2238L253.452 32.06L255.53 29.8962L250.238 24.8142L248.16 26.978ZM253.452 32.06L251.181 30.1006L248.283 33.4606L250.554 35.42L252.826 37.3794L255.724 34.0194L253.452 32.06ZM250.554 35.42L247.76 36.5106C248.02 37.1786 248.226 38.2782 248.226 39.956H251.226H254.226C254.226 37.8818 253.984 35.9574 253.349 34.3294L250.554 35.42ZM251.226 39.956H248.226C248.226 41.0481 248.097 41.8801 247.902 42.5005L250.764 43.4L253.626 44.2995C254.047 42.9599 254.226 41.4959 254.226 39.956H251.226ZM250.764 43.4L247.902 42.5005C247.745 43 247.504 43.3703 247.176 43.6736L249.21 45.878L251.245 48.0824C252.373 47.0417 253.167 45.76 253.626 44.2995L250.764 43.4ZM249.21 45.878L247.133 43.7138C246.817 44.0168 246.303 44.35 245.469 44.6349L246.438 47.474L247.408 50.313C248.869 49.814 250.204 49.0832 251.288 48.0422L249.21 45.878ZM246.438 47.474L245.532 44.6143C244.668 44.8882 243.479 45.1114 241.909 45.24L242.154 48.23L242.399 51.22C244.246 51.0686 245.913 50.7878 247.345 50.3337L246.438 47.474ZM242.154 48.23L239.198 47.7203L238.988 48.9383L241.944 49.448L244.901 49.9577L245.111 48.7397L242.154 48.23ZM241.944 49.448L241.76 52.4423C243.496 52.5491 244.892 52.7189 245.976 52.9357L246.564 49.994L247.153 47.0523C245.717 46.7651 244.033 46.5709 242.129 46.4537L241.944 49.448ZM246.564 49.994L246.039 52.9477C247.045 53.1265 247.657 53.384 248.008 53.6095L249.63 51.086L251.253 48.5625C250.035 47.78 248.604 47.3095 247.089 47.0403L246.564 49.994ZM249.63 51.086L248.008 53.6095C248.337 53.821 248.475 54.0173 248.553 54.1998L251.31 53.018L254.068 51.8362C253.474 50.4507 252.492 49.359 251.253 48.5625L249.63 51.086ZM251.31 53.018L248.589 54.2813C248.712 54.5459 248.856 55.0718 248.856 56H251.856H254.856C254.856 54.5202 254.637 53.0581 254.031 51.7547L251.31 53.018ZM251.856 56H248.856C248.856 57.6604 248.515 58.5212 248.21 58.9431L250.638 60.704L253.067 62.4649C254.385 60.6468 254.856 58.3716 254.856 56H251.856ZM250.638 60.704L248.21 58.9431C247.737 59.5949 247.13 60.0739 246.322 60.4007L247.446 63.182L248.571 65.9633C250.394 65.2261 251.916 64.0531 253.067 62.4649L250.638 60.704ZM247.446 63.182L246.301 60.4092C245.364 60.7964 244.221 61.0608 242.833 61.1549L243.036 64.148L243.239 67.1411C245.156 67.0112 246.953 66.6316 248.592 65.9548L247.446 63.182ZM243.036 64.148L242.83 61.1551C241.276 61.2623 239.707 61.316 238.122 61.316V64.316V67.316C239.842 67.316 241.549 67.2577 243.243 67.1409L243.036 64.148ZM238.122 64.316V61.316C235.089 61.316 231.718 60.8567 227.991 59.8985L227.244 62.804L226.497 65.7095C230.611 66.7673 234.491 67.316 238.122 67.316V64.316ZM236.316 38.864H233.316V42.14H236.316H239.316V38.864H236.316ZM236.316 42.14V45.14H237.87V42.14V39.14H236.316V42.14ZM237.87 42.14V45.14C239.169 45.14 240.583 45.0217 241.747 44.4978L240.516 41.762L239.285 39.0262C239.349 38.9976 239.287 39.0362 239.011 39.0757C238.749 39.113 238.376 39.14 237.87 39.14V42.14ZM240.516 41.762L241.747 44.4978C243.856 43.5489 244.356 41.4926 244.356 40.04H241.356H238.356C238.356 40.2043 238.326 40.0807 238.45 39.8272C238.517 39.6903 238.623 39.5286 238.78 39.3736C238.939 39.2173 239.115 39.1027 239.285 39.0262L240.516 41.762ZM241.356 40.04H244.356V36.764H241.356H238.356V40.04H241.356ZM241.356 36.764V33.764H239.76V36.764V39.764H241.356V36.764ZM239.76 36.764V33.764C238.462 33.764 237.048 33.8823 235.883 34.4062L237.114 37.142L238.345 39.8778C238.282 39.9064 238.344 39.8678 238.62 39.8283C238.882 39.791 239.255 39.764 239.76 39.764V36.764ZM237.114 37.142L235.83 34.4308C233.752 35.4152 233.316 37.4869 233.316 38.864H236.316H239.316C239.316 38.6828 239.348 38.7857 239.238 39.0229C239.178 39.1526 239.078 39.3149 238.923 39.4758C238.765 39.6389 238.584 39.7655 238.399 39.8532L237.114 37.142ZM265.405 47.432V44.432H262.405V47.432H265.405ZM265.405 49.196H262.405V51.8811L265.073 52.1777L265.405 49.196ZM277.921 47.852L280.883 47.3807L280.336 43.9431L277.017 44.9913L277.921 47.852ZM279.097 55.244L279.87 58.1427L282.485 57.4454L282.059 54.7727L279.097 55.244ZM257.719 53.48L255.543 55.5455L255.55 55.5524L255.556 55.5593L257.719 53.48ZM257.719 33.362L255.557 31.2821L255.556 31.2827L257.719 33.362ZM273.805 30.506L273.226 33.4497L273.252 33.4547L273.277 33.4593L273.805 30.506ZM277.585 31.976L275.807 34.393L275.847 34.4222L275.888 34.4502L277.585 31.976ZM279.643 34.748L276.797 35.6967L276.81 35.7379L276.825 35.7787L279.643 34.748ZM279.517 42.896L276.805 41.6117L276.798 41.6276L276.791 41.6435L279.517 42.896ZM277.081 45.458L275.565 42.869L275.565 42.869L277.081 45.458ZM272.503 46.97L272.982 49.9315L273.003 49.9281L273.024 49.9244L272.503 46.97ZM265.405 41.594H262.405V44.594H265.405V41.594ZM270.109 41.216L268.878 38.4802L268.851 38.4923L268.824 38.5048L270.109 41.216ZM270.949 37.394H273.949V34.394H270.949V37.394ZM266.203 37.772L264.972 35.0362L264.945 35.0483L264.918 35.0608L266.203 37.772ZM265.405 47.432H262.405V49.196H265.405H268.405V47.432H265.405ZM265.405 49.196L265.073 52.1777C265.632 52.2397 266.191 52.2863 266.75 52.3174L266.917 49.322L267.083 46.3266C266.634 46.3017 266.185 46.2643 265.736 46.2143L265.405 49.196ZM266.917 49.322L266.75 52.3174C267.31 52.3485 267.869 52.364 268.429 52.364V49.364V46.364C267.98 46.364 267.532 46.3515 267.083 46.3266L266.917 49.322ZM268.429 49.364V52.364C271.891 52.364 275.359 51.8068 278.824 50.7127L277.921 47.852L277.017 44.9913C274.098 45.9132 271.238 46.364 268.429 46.364V49.364ZM277.921 47.852L274.958 48.3233L276.134 55.7153L279.097 55.244L282.059 54.7727L280.883 47.3807L277.921 47.852ZM279.097 55.244L278.324 52.3453C274.779 53.2905 271.315 53.756 267.925 53.756V56.756V59.756C271.87 59.756 275.854 59.2135 279.87 58.1427L279.097 55.244ZM267.925 56.756V53.756C263.595 53.756 261.169 52.7399 259.881 51.4007L257.719 53.48L255.556 55.5593C258.468 58.5881 262.847 59.756 267.925 59.756V56.756ZM257.719 53.48L259.894 51.4145C258.529 49.9766 257.569 47.5017 257.569 43.4H254.569H251.569C251.569 48.3143 252.708 52.5594 255.543 55.5455L257.719 53.48ZM254.569 43.4H257.569C257.569 39.2945 258.531 36.8457 259.881 35.4413L257.719 33.362L255.556 31.2827C252.706 34.2463 251.569 38.4895 251.569 43.4H254.569ZM257.719 33.362L259.881 35.4419C261.205 34.0648 263.643 33.044 267.925 33.044V30.044V27.044C262.855 27.044 258.488 28.2352 255.557 31.2821L257.719 33.362ZM267.925 30.044V33.044C270.164 33.044 271.915 33.1922 273.226 33.4497L273.805 30.506L274.383 27.5623C272.558 27.2038 270.389 27.044 267.925 27.044V30.044ZM273.805 30.506L273.277 33.4593C274.543 33.6853 275.331 34.0427 275.807 34.393L277.585 31.976L279.362 29.559C277.934 28.5093 276.203 27.8867 274.332 27.5527L273.805 30.506ZM277.585 31.976L275.888 34.4502C276.304 34.7357 276.602 35.1121 276.797 35.6967L279.643 34.748L282.489 33.7993C281.9 32.0319 280.825 30.5603 279.281 29.5018L277.585 31.976ZM279.643 34.748L276.825 35.7787C277.084 36.4851 277.273 37.5613 277.273 39.116H280.273H283.273C283.273 37.1427 283.042 35.3069 282.46 33.7173L279.643 34.748ZM280.273 39.116H277.273C277.273 40.2305 277.08 41.0327 276.805 41.6117L279.517 42.896L282.228 44.1803C282.962 42.6313 283.273 40.9135 283.273 39.116H280.273ZM279.517 42.896L276.791 41.6435C276.612 42.0316 276.273 42.4545 275.565 42.869L277.081 45.458L278.596 48.047C280.184 47.1175 281.469 45.8324 282.243 44.1485L279.517 42.896ZM277.081 45.458L275.565 42.869C274.83 43.2995 273.68 43.7159 271.981 44.0156L272.503 46.97L273.024 49.9244C275.134 49.5521 277.036 48.9605 278.596 48.047L277.081 45.458ZM272.503 46.97L272.024 44.0085C270.332 44.2821 268.139 44.432 265.405 44.432V47.432V50.432C268.326 50.432 270.865 50.2739 272.982 49.9315L272.503 46.97ZM265.405 39.536H262.405V41.594H265.405H268.405V39.536H265.405ZM265.405 41.594V44.594H267.463V41.594V38.594H265.405V41.594ZM267.463 41.594V44.594C268.757 44.594 270.218 44.4839 271.393 43.9272L270.109 41.216L268.824 38.5048C268.932 38.4538 268.903 38.4897 268.624 38.5297C268.365 38.5666 267.986 38.594 267.463 38.594V41.594ZM270.109 41.216L271.34 43.9518C273.481 42.9881 273.949 40.8794 273.949 39.452H270.949H267.949C267.949 39.6419 267.915 39.5373 268.03 39.2962C268.093 39.1643 268.196 39.0016 268.355 38.8427C268.516 38.6819 268.697 38.5613 268.878 38.4802L270.109 41.216ZM270.949 39.452H273.949V37.394H270.949H267.949V39.452H270.949ZM270.949 37.394V34.394H268.891V37.394V40.394H270.949V37.394ZM268.891 37.394V34.394C267.576 34.394 266.141 34.5099 264.972 35.0362L266.203 37.772L267.434 40.5078C267.364 40.539 267.426 40.4996 267.712 40.4593C267.983 40.4213 268.368 40.394 268.891 40.394V37.394ZM266.203 37.772L264.918 35.0608C262.81 36.0596 262.405 38.1828 262.405 39.536H265.405H268.405C268.405 39.33 268.439 39.414 268.337 39.6385C268.281 39.7628 268.185 39.9258 268.029 40.0902C267.869 40.2577 267.683 40.3906 267.487 40.4832L266.203 37.772Z" fill="#6F9DE2" mask="url(#path-3-outside-1_6153_1628)"/>
</svg>
